<?xml version="1.0" standalone="no"?>
<!DOCTYPE svg PUBLIC "-//W3C//DTD SVG 20010904//EN"
 "http://www.w3.org/TR/2001/REC-SVG-20010904/DTD/svg10.dtd">
<svg version="1.0" xmlns="http://www.w3.org/2000/svg"
 width="4000.000000pt" height="6016.000000pt" viewBox="0 0 4000.000000 6016.000000"
 preserveAspectRatio="xMidYMid meet">
<metadata>
Created by potrace 1.15, written by Peter Selinger 2001-2017
</metadata>
<g transform="translate(0.000000,6016.000000) scale(0.100000,-0.100000)"
fill="#000000" stroke="none">
<path d="M23875 56794 c-22 -2 -89 -9 -150 -14 -506 -48 -1007 -215 -1438
-479 -108 -66 -157 -85 -157 -61 0 6 -40 10 -100 10 -60 0 -100 -4 -100 -10 0
-5 -25 -10 -56 -10 -49 0 -59 -4 -84 -30 -17 -18 -38 -30 -54 -30 -14 0 -26
-4 -26 -10 0 -5 -22 -10 -48 -10 -36 0 -51 -5 -62 -20 -8 -11 -22 -20 -32 -20
-10 0 -18 -4 -18 -10 0 -5 -9 -10 -20 -10 -11 0 -20 -4 -20 -10 0 -5 -13 -10
-30 -10 -16 0 -30 5 -30 10 0 6 -8 10 -18 10 -10 0 -24 9 -32 20 -12 16 -26
20 -72 20 -32 0 -58 4 -58 10 0 6 -9 10 -20 10 -11 0 -20 5 -20 10 0 6 -9 10
-20 10 -11 0 -20 5 -20 10 0 6 -9 10 -20 10 -11 0 -20 5 -20 10 0 6 -13 10
-30 10 -16 0 -30 5 -30 10 0 6 -9 10 -20 10 -11 0 -20 5 -20 10 0 6 -9 10 -20
10 -11 0 -20 5 -20 10 0 6 -9 10 -20 10 -11 0 -20 5 -20 10 0 6 -18 10 -40 10
-22 0 -40 5 -40 10 0 6 -8 10 -18 10 -10 0 -24 9 -32 20 -11 15 -26 20 -62 20
-26 0 -48 5 -48 10 0 6 -8 10 -18 10 -10 0 -24 9 -32 20 -12 16 -26 20 -72 20
-32 0 -58 4 -58 10 0 6 -39 10 -98 10 -86 0 -99 2 -112 20 -8 11 -20 20 -28
20 -7 0 -40 27 -72 60 -32 33 -65 60 -72 60 -8 0 -20 9 -28 20 -10 14 -26 20
-52 20 -21 0 -38 5 -38 10 0 6 -33 10 -80 10 -47 0 -80 4 -80 10 0 6 -47 10
-120 10 -73 0 -120 -4 -120 -10 0 -12 -43 -13 -55 -1 -6 5 -28 11 -50 14 -22
2 -105 16 -185 30 -208 37 -356 50 -595 49 -389 0 -714 -52 -1078 -173 -198
-65 -461 -184 -652 -294 -38 -22 -42 -23 -105 -9 -177 37 -394 57 -640 58
-384 1 -705 -47 -1050 -156 -218 -69 -536 -212 -690 -309 -14 -9 -70 -44 -125
-79 -119 -75 -305 -208 -305 -219 0 -4 -21 -23 -47 -41 -55 -38 -350 -327
-358 -350 -3 -8 -30 -42 -61 -75 -31 -33 -91 -109 -134 -170 l-79 -110 -118
-43 c-173 -63 -350 -144 -508 -235 -151 -85 -344 -210 -386 -248 -14 -13 -75
-64 -135 -114 -160 -132 -254 -224 -376 -370 -61 -71 -123 -146 -140 -165 -16
-19 -63 -85 -104 -146 l-74 -111 -158 -7 c-443 -19 -742 -81 -1174 -242 -75
-28 -256 -113 -334 -156 -43 -25 -87 -48 -97 -51 -25 -9 -262 -166 -357 -235
-227 -167 -494 -434 -662 -662 -109 -148 -227 -337 -308 -492 l-82 -158 -49 0
c-27 0 -49 5 -49 10 0 6 -18 10 -40 10 -23 0 -40 5 -40 11 0 8 -20 10 -60 7
-33 -2 -60 -1 -60 4 0 4 -11 8 -24 8 -32 0 -43 -30 -18 -50 15 -13 16 -18 6
-28 -7 -7 -18 -12 -24 -12 -7 0 -29 -18 -51 -41 -31 -32 -42 -39 -53 -30 -28
23 -68 -17 -45 -45 9 -11 2 -22 -30 -53 l-41 -39 0 -303 c0 -300 0 -302 22
-322 16 -13 19 -21 11 -24 -7 -3 -13 -13 -13 -24 0 -10 -4 -19 -10 -19 -5 0
-10 -25 -10 -56 0 -62 -20 -95 -44 -75 -28 23 -68 -17 -45 -45 6 -8 20 -14 30
-14 11 0 19 -7 19 -15 0 -8 -4 -15 -10 -15 -5 0 -10 -7 -10 -15 0 -18 -44 -65
-60 -65 -6 0 -22 -11 -35 -25 -23 -22 -25 -31 -25 -126 0 -99 0 -101 -30 -129
-23 -21 -30 -37 -30 -64 0 -20 -4 -36 -10 -36 -5 0 -10 -9 -10 -20 0 -11 -4
-20 -10 -20 -5 0 -10 -13 -10 -28 0 -16 -8 -34 -20 -42 -15 -11 -20 -26 -20
-58 0 -32 -6 -49 -25 -67 -13 -14 -29 -25 -36 -25 -6 0 -24 -13 -39 -30 -15
-16 -35 -30 -44 -30 -9 0 -16 -4 -16 -10 0 -5 -7 -10 -16 -10 -9 0 -26 -10
-37 -22 -13 -16 -21 -19 -24 -10 -3 9 -41 12 -139 12 l-135 0 -49 -50 -49 -50
-75 0 c-44 0 -76 -4 -76 -10 0 -6 -139 -10 -396 -10 l-396 0 -28 -30 c-15 -16
-34 -30 -42 -30 -7 0 -20 -9 -28 -20 -8 -11 -22 -20 -32 -20 -10 0 -18 -4 -18
-10 0 -5 -22 -10 -48 -10 -36 0 -51 -5 -62 -20 -11 -15 -26 -20 -62 -20 -26 0
-48 -4 -48 -10 0 -5 -7 -10 -15 -10 -18 0 -65 -44 -65 -61 0 -6 -13 -24 -30
-39 -16 -15 -30 -35 -30 -44 0 -9 -4 -16 -10 -16 -5 0 -10 -7 -10 -16 0 -8
-27 -42 -60 -74 -42 -42 -60 -66 -60 -84 0 -15 -4 -26 -10 -26 -5 0 -10 -13
-10 -30 0 -16 -4 -30 -10 -30 -6 0 -10 -35 -10 -86 0 -83 -1 -87 -30 -114 -16
-15 -30 -33 -30 -39 0 -17 -67 -81 -85 -81 -8 0 -15 -4 -15 -10 0 -5 -7 -10
-16 -10 -8 0 -42 -27 -74 -60 -32 -33 -64 -60 -70 -60 -15 0 -160 -147 -160
-163 0 -7 -9 -19 -20 -27 -11 -8 -20 -22 -20 -32 0 -10 -4 -18 -10 -18 -5 0
-10 -9 -10 -20 0 -11 -4 -20 -10 -20 -5 0 -10 -9 -10 -20 0 -11 -4 -20 -10
-20 -5 0 -10 -18 -10 -40 0 -22 -4 -40 -10 -40 -6 0 -10 -43 -10 -108 0 -96
-2 -109 -20 -122 -15 -11 -20 -26 -20 -58 0 -35 -6 -48 -35 -77 -19 -19 -39
-35 -45 -35 -14 0 -100 -86 -100 -101 0 -6 -18 -28 -40 -49 -22 -21 -40 -46
-40 -54 0 -9 -4 -16 -10 -16 -6 0 -10 -57 -10 -150 0 -93 -4 -150 -10 -150 -5
0 -10 -9 -10 -20 0 -11 -4 -20 -10 -20 -5 0 -10 -8 -10 -18 0 -10 -9 -24 -20
-32 -11 -8 -20 -21 -20 -28 0 -8 -13 -27 -30 -42 -16 -15 -30 -33 -30 -39 0
-7 -45 -56 -100 -111 -55 -55 -100 -104 -100 -110 0 -6 -41 -51 -90 -100 -66
-66 -90 -96 -90 -115 0 -14 -4 -25 -10 -25 -5 0 -10 -16 -10 -35 0 -30 -9 -45
-55 -90 -30 -30 -59 -55 -65 -55 -20 0 -120 -109 -120 -131 0 -11 -13 -34 -30
-49 -16 -15 -30 -33 -30 -40 0 -7 -13 -25 -30 -40 -16 -15 -30 -33 -30 -40 0
-6 -18 -29 -40 -50 l-40 -38 0 -142 c0 -138 -1 -142 -25 -166 -20 -20 -29 -23
-39 -15 -28 23 -68 -17 -45 -45 8 -10 -18 -41 -115 -138 -69 -69 -130 -126
-136 -126 -20 0 -80 -69 -80 -92 0 -13 -9 -30 -20 -38 -12 -8 -20 -26 -20 -42
0 -15 -4 -28 -10 -28 -5 0 -10 -22 -10 -50 0 -27 -4 -50 -10 -50 -6 0 -10 -37
-10 -90 0 -53 4 -90 10 -90 6 0 10 -43 10 -110 0 -67 4 -110 10 -110 6 0 10
-76 10 -208 0 -196 1 -208 20 -222 14 -10 20 -26 20 -50 0 -24 6 -40 20 -50
18 -13 20 -26 20 -112 0 -59 4 -98 10 -98 18 0 11 -35 -10 -50 -19 -14 -20
-26 -20 -252 0 -152 -4 -238 -10 -238 -5 0 -10 -18 -10 -40 0 -22 -4 -40 -10
-40 -5 0 -10 -9 -10 -20 0 -11 -4 -20 -10 -20 -5 0 -10 -9 -10 -20 0 -11 -4
-20 -10 -20 -5 0 -10 -9 -10 -20 0 -11 -4 -20 -10 -20 -5 0 -10 -13 -10 -30 0
-16 -4 -30 -10 -30 -6 0 -10 -37 -10 -90 0 -53 4 -90 10 -90 6 0 10 -66 10
-178 0 -166 1 -179 20 -192 15 -11 20 -26 20 -62 0 -26 5 -48 10 -48 6 0 10
-16 10 -35 0 -32 11 -47 100 -135 55 -55 100 -104 100 -111 0 -6 14 -24 30
-39 l30 -28 0 -272 0 -272 40 -38 c35 -34 40 -44 40 -84 0 -25 5 -46 10 -46 6
0 10 -13 10 -30 0 -16 5 -30 10 -30 6 0 10 -9 10 -20 0 -11 -4 -20 -10 -20 -6
0 -10 -130 -10 -370 0 -240 4 -370 10 -370 6 0 10 -13 10 -30 0 -16 5 -30 10
-30 6 0 10 -22 10 -50 0 -45 -3 -50 -25 -56 -28 -7 -45 -48 -27 -66 9 -9 16
-7 29 5 12 11 23 13 33 7 12 -7 11 -12 -8 -28 -12 -11 -22 -25 -22 -31 0 -6
-40 -52 -90 -101 -57 -56 -90 -97 -90 -110 0 -12 -18 -39 -40 -60 -37 -35 -40
-43 -40 -92 0 -42 4 -57 20 -68 11 -8 20 -26 20 -40 0 -14 9 -32 20 -40 17
-12 20 -26 20 -88 0 -69 2 -76 30 -102 17 -16 30 -38 30 -52 0 -13 9 -30 20
-38 15 -11 20 -26 20 -62 0 -26 5 -48 10 -48 6 0 10 -13 10 -28 0 -16 8 -34
20 -42 11 -8 20 -20 20 -28 0 -7 23 -35 50 -62 28 -27 50 -56 50 -64 0 -9 5
-16 10 -16 6 0 10 -60 10 -160 0 -100 4 -160 10 -160 6 0 10 -40 10 -100 0
-60 4 -100 10 -100 6 0 10 -43 10 -110 0 -67 4 -110 10 -110 6 0 10 -53 10
-139 l0 -138 -63 -5 c-77 -7 -130 -33 -184 -91 -74 -80 -93 -209 -45 -304 11
-21 42 -58 69 -82 26 -23 64 -57 83 -76 19 -18 58 -45 85 -58 28 -14 88 -60
135 -101 110 -99 162 -133 213 -141 61 -10 270 -137 397 -241 30 -25 78 -60
107 -79 28 -19 55 -40 58 -46 4 -6 30 -26 59 -45 92 -63 148 -104 180 -132 32
-28 32 -28 24 -97 -4 -39 -18 -205 -32 -370 -14 -165 -30 -327 -36 -360 -6
-33 -11 -73 -11 -90 1 -61 -9 -255 -23 -450 -8 -110 -15 -227 -15 -260 -1 -33
-10 -186 -20 -340 -11 -154 -19 -289 -18 -300 1 -11 -2 -72 -6 -136 -9 -130
-2 -176 38 -230 13 -19 38 -55 55 -80 16 -25 60 -73 97 -106 38 -33 117 -108
176 -167 59 -58 112 -106 116 -106 5 0 28 -16 52 -36 24 -20 69 -50 102 -67
32 -18 84 -46 115 -64 31 -17 108 -57 170 -89 106 -54 142 -82 114 -92 -7 -2
-12 -12 -12 -23 0 -10 -4 -19 -10 -19 -5 0 -10 -18 -10 -40 0 -22 -4 -40 -10
-40 -5 0 -10 -13 -10 -30 0 -16 -4 -30 -10 -30 -5 0 -10 -13 -10 -30 0 -16 -4
-30 -10 -30 -6 0 -10 -53 -10 -138 0 -126 2 -139 20 -152 15 -11 20 -26 20
-62 0 -26 -4 -48 -10 -48 -5 0 -10 -22 -10 -50 0 -27 -4 -50 -10 -50 -5 0 -10
-22 -10 -50 0 -27 -4 -50 -10 -50 -6 0 -10 -60 -10 -160 0 -100 -4 -160 -10
-160 -5 0 -10 -9 -10 -20 0 -11 -4 -20 -10 -20 -6 0 -10 -40 -10 -100 0 -60 4
-100 10 -100 6 0 10 -22 10 -50 0 -27 5 -50 10 -50 6 0 10 -33 10 -80 0 -47 4
-80 10 -80 6 0 10 -59 10 -158 0 -146 1 -159 20 -172 16 -12 20 -26 20 -72 0
-32 4 -58 10 -58 6 0 10 -40 10 -100 0 -60 -4 -100 -10 -100 -5 0 -10 -13 -10
-30 0 -16 -4 -30 -10 -30 -6 0 -10 -27 -10 -60 0 -33 4 -60 10 -60 6 0 10 -18
10 -40 0 -22 5 -40 10 -40 6 0 10 -27 10 -60 0 -33 4 -60 10 -60 6 0 10 -8 10
-18 0 -10 9 -24 20 -32 19 -13 20 -26 20 -172 0 -99 4 -158 10 -158 6 0 10
-39 10 -98 0 -86 2 -99 20 -112 17 -12 20 -26 20 -82 0 -39 4 -68 10 -68 6 0
10 -9 10 -20 0 -11 5 -20 10 -20 6 0 10 -39 10 -98 0 -86 2 -99 20 -112 16
-12 20 -26 20 -78 0 -58 3 -67 30 -92 17 -16 30 -38 30 -52 0 -13 9 -30 20
-38 12 -8 20 -26 20 -42 0 -15 5 -28 10 -28 6 0 10 -22 10 -48 0 -36 5 -51 20
-62 12 -8 20 -26 20 -42 0 -15 5 -28 10 -28 6 0 10 -18 10 -40 0 -22 5 -40 10
-40 6 0 10 -8 10 -18 0 -10 9 -24 20 -32 11 -8 20 -21 20 -30 0 -9 9 -22 20
-30 17 -12 20 -26 20 -88 0 -69 2 -76 30 -102 26 -25 30 -35 30 -84 0 -31 5
-56 10 -56 6 0 10 -22 10 -48 0 -36 5 -51 20 -62 12 -8 20 -26 20 -42 0 -15 5
-28 10 -28 6 0 10 -13 10 -30 0 -16 5 -30 10 -30 6 0 10 -12 10 -26 0 -16 12
-37 30 -54 24 -23 30 -36 30 -72 0 -32 5 -47 20 -58 11 -8 20 -26 20 -40 0
-14 9 -32 20 -40 18 -13 20 -26 20 -142 0 -79 4 -128 10 -128 6 0 10 -17 10
-37 0 -21 9 -99 20 -174 62 -440 222 -887 455 -1274 81 -135 343 -494 474
-650 149 -176 383 -394 551 -513 36 -25 75 -55 87 -67 21 -20 295 -186 368
-223 22 -11 67 -33 100 -50 141 -71 444 -182 625 -227 255 -64 461 -94 713
-102 164 -5 187 -8 187 -22 0 -9 9 -23 20 -31 13 -9 20 -26 20 -48 0 -24 9
-42 36 -69 26 -26 34 -41 30 -57 -15 -53 -58 -304 -73 -421 -20 -163 -23 -565
-5 -720 32 -276 95 -565 169 -770 20 -55 36 -111 36 -125 0 -14 -8 -90 -18
-170 -23 -175 -26 -558 -7 -725 19 -159 49 -334 79 -460 15 -60 26 -114 24
-120 -1 -5 -7 -197 -12 -425 -11 -440 -5 -580 31 -841 59 -423 200 -827 425
-1219 80 -139 239 -369 305 -440 28 -30 58 -66 67 -80 8 -14 74 -86 148 -159
l132 -134 -76 -71 c-104 -97 -236 -236 -311 -326 -72 -86 -230 -306 -230 -319
0 -5 -4 -11 -9 -13 -31 -11 -242 -419 -315 -608 -27 -67 -49 -107 -76 -135
-22 -22 -65 -71 -97 -108 -32 -37 -68 -70 -80 -73 -15 -4 -26 -18 -32 -41 -11
-39 -78 -126 -91 -118 -5 3 -21 3 -35 -1 -29 -7 -44 -47 -25 -69 18 -21 -10
-55 -212 -257 -98 -98 -178 -182 -178 -188 0 -6 -36 -46 -80 -90 -79 -78 -80
-80 -80 -130 0 -58 -20 -90 -44 -71 -29 24 -68 -18 -44 -47 10 -12 10 -16 1
-19 -7 -3 -13 -16 -13 -30 0 -15 -12 -36 -30 -53 -16 -15 -30 -33 -30 -39 0
-14 -366 -381 -380 -381 -15 0 -180 -167 -180 -183 0 -7 -9 -19 -20 -27 -11
-8 -20 -20 -20 -27 0 -16 -385 -403 -401 -403 -5 0 -32 -22 -59 -50 -54 -55
-70 -60 -98 -30 -30 32 -79 -2 -51 -36 15 -19 -96 -130 -115 -115 -28 23 -68
-17 -45 -45 15 -18 -32 -64 -66 -64 -14 0 -25 -4 -25 -10 0 -5 -13 -10 -28
-10 -16 0 -34 -8 -42 -20 -13 -17 -26 -20 -102 -20 -52 0 -88 -4 -88 -10 0 -5
-13 -10 -28 -10 -16 0 -34 -8 -42 -20 -12 -17 -26 -20 -98 -20 l-84 0 -38 -40
c-37 -38 -41 -40 -100 -40 -56 0 -65 -3 -90 -30 -15 -16 -35 -30 -44 -30 -9 0
-16 -4 -16 -10 0 -5 -18 -10 -40 -10 -22 0 -40 -4 -40 -10 0 -5 -18 -10 -40
-10 -22 0 -40 -4 -40 -10 0 -5 -9 -10 -20 -10 -11 0 -20 -4 -20 -10 0 -5 -9
-10 -20 -10 -11 0 -20 -4 -20 -10 0 -5 -8 -10 -18 -10 -10 0 -24 -9 -32 -20
-8 -12 -26 -20 -42 -20 -15 0 -28 -4 -28 -10 0 -6 -35 -10 -86 -10 l-85 0 -59
-60 c-32 -33 -66 -60 -74 -60 -9 0 -16 -4 -16 -10 0 -5 -7 -10 -16 -10 -8 0
-33 -18 -54 -40 -31 -32 -46 -40 -74 -40 -20 0 -36 -4 -36 -10 0 -5 -21 -10
-46 -10 -40 0 -50 -5 -84 -40 l-38 -40 -142 0 -142 0 -28 -30 c-15 -16 -35
-30 -44 -30 -9 0 -16 -4 -16 -10 0 -5 -22 -10 -50 -10 -27 0 -50 -4 -50 -10 0
-5 -18 -10 -40 -10 -22 0 -40 -4 -40 -10 0 -13 -33 -13 -46 0 -24 24 -65 -20
-43 -46 8 -10 0 -24 -35 -58 -25 -26 -51 -46 -57 -46 -6 0 -24 -13 -39 -30
-17 -18 -38 -30 -54 -30 -14 0 -26 -4 -26 -10 0 -5 -8 -10 -18 -10 -10 0 -24
-9 -32 -20 -8 -11 -21 -20 -30 -20 -9 0 -22 -9 -30 -20 -8 -11 -22 -20 -32
-20 -10 0 -18 -4 -18 -10 0 -6 -29 -10 -68 -10 -56 0 -70 -3 -82 -20 -8 -11
-22 -20 -32 -20 -10 0 -18 -4 -18 -10 0 -5 -9 -10 -20 -10 -11 0 -20 -4 -20
-10 0 -5 -13 -10 -30 -10 -16 0 -30 -4 -30 -10 0 -5 -7 -10 -16 -10 -8 0 -33
-18 -54 -40 -21 -22 -46 -40 -54 -40 -9 0 -16 -4 -16 -10 0 -6 -29 -10 -68
-10 -56 0 -70 -3 -82 -20 -8 -11 -21 -20 -30 -20 -9 0 -22 -9 -30 -20 -8 -11
-22 -20 -32 -20 -10 0 -18 -4 -18 -10 0 -5 -13 -10 -30 -10 -16 0 -30 -4 -30
-10 0 -5 -18 -10 -40 -10 -22 0 -40 -4 -40 -10 0 -5 -18 -10 -40 -10 -22 0
-40 -4 -40 -10 0 -5 -13 -10 -30 -10 -16 0 -30 -4 -30 -10 0 -5 -18 -10 -40
-10 -22 0 -40 -4 -40 -10 0 -5 -17 -10 -38 -10 -26 0 -42 -6 -52 -20 -8 -11
-21 -20 -30 -20 -9 0 -22 -9 -30 -20 -8 -11 -21 -20 -28 -20 -8 0 -27 -13 -42
-30 -17 -18 -38 -30 -54 -30 -14 0 -26 -4 -26 -10 0 -5 -13 -10 -30 -10 -16 0
-30 -4 -30 -10 0 -5 -22 -10 -50 -10 -27 0 -50 -4 -50 -10 0 -6 -27 -10 -60
-10 -33 0 -60 -4 -60 -10 0 -5 -16 -10 -36 -10 -27 0 -43 -7 -64 -30 -17 -18
-38 -30 -54 -30 -14 0 -26 -4 -26 -10 0 -6 -27 -10 -60 -10 -33 0 -60 -4 -60
-10 0 -5 -8 -10 -18 -10 -10 0 -24 -9 -32 -20 -11 -16 -26 -20 -70 -20 -44 0
-59 -4 -70 -20 -12 -16 -26 -20 -72 -20 -32 0 -58 -4 -58 -10 0 -5 -17 -10
-38 -10 -26 0 -42 -6 -52 -20 -10 -13 -26 -20 -48 -20 -25 0 -42 -8 -62 -30
-21 -23 -37 -30 -64 -30 -20 0 -36 -4 -36 -10 0 -5 -7 -10 -15 -10 -9 0 -47
-31 -85 -70 -43 -43 -77 -70 -91 -70 -11 0 -34 -13 -49 -30 -15 -16 -33 -30
-39 -30 -14 0 -141 -126 -141 -140 0 -20 -109 -120 -130 -120 -12 0 -42 -22
-70 -50 -33 -34 -57 -50 -74 -50 -14 0 -26 -4 -26 -10 0 -5 -13 -10 -30 -10
-16 0 -30 -4 -30 -10 0 -5 -8 -10 -18 -10 -10 0 -24 -9 -32 -20 -8 -12 -26
-20 -42 -20 -15 0 -28 -4 -28 -10 0 -5 -7 -10 -15 -10 -17 0 -145 -124 -145
-140 0 -19 -129 -140 -150 -140 -21 0 -130 -101 -130 -121 0 -6 -13 -24 -30
-39 -16 -15 -30 -33 -30 -39 0 -6 -47 -58 -105 -116 -87 -87 -110 -105 -135
-105 -26 0 -54 -24 -190 -160 l-160 -160 -55 0 c-30 0 -55 -4 -55 -10 0 -5 -7
-10 -16 -10 -9 0 -29 -13 -44 -30 -15 -16 -33 -30 -40 -30 -7 0 -25 -14 -41
-31 l-29 -31 0 -4494 0 -4494 20000 0 20000 0 0 2875 0 2875 -85 0 c-50 0 -85
4 -85 10 0 6 -77 10 -210 10 -133 0 -210 4 -210 10 0 6 -8 10 -18 10 -10 0
-24 9 -32 20 -11 15 -26 20 -62 20 -26 0 -48 5 -48 10 0 6 -26 10 -58 10 -46
0 -60 4 -72 20 -8 11 -21 20 -28 20 -7 0 -31 18 -52 40 -37 39 -41 40 -104 40
-37 0 -66 4 -66 10 0 6 -20 10 -46 10 -51 0 -60 8 -221 200 -90 106 -230 243
-343 336 -41 34 -91 76 -110 93 -54 49 -270 190 -427 280 -123 70 -313 162
-420 201 -18 7 -49 33 -70 59 -70 87 -218 233 -333 329 -63 53 -124 105 -135
115 -74 70 -419 283 -600 372 -188 91 -429 181 -617 229 -47 12 -75 29 -150
93 -51 43 -120 99 -153 123 -33 25 -64 50 -70 57 -15 17 -171 115 -314 197
-135 78 -304 158 -435 207 -44 17 -99 38 -121 46 -86 33 -317 95 -465 124
-146 28 -200 48 -230 85 -15 17 -231 153 -348 217 -385 213 -836 349 -1330
402 l-64 7 -94 94 c-87 88 -96 94 -134 94 -38 0 -47 6 -150 110 -92 92 -114
110 -140 110 -25 0 -45 15 -110 80 -44 44 -84 80 -90 80 -6 0 -33 23 -60 50
-43 44 -54 50 -90 50 -38 0 -47 6 -110 70 -38 39 -74 70 -80 70 -6 0 -18 6
-26 14 -12 13 -12 17 2 31 9 9 14 19 11 22 -3 3 -13 -2 -23 -11 -15 -15 -17
-15 -34 4 -12 14 -30 20 -59 20 -38 0 -48 6 -91 50 -40 42 -55 50 -84 50 -20
0 -36 5 -36 10 0 6 -8 10 -18 10 -10 0 -24 9 -32 20 -13 18 -26 20 -112 20
-59 0 -98 4 -98 10 0 6 -12 10 -26 10 -16 0 -37 12 -54 30 -27 29 -31 30 -118
30 l-91 0 -6 58 c-3 31 -13 107 -21 167 -56 419 -200 847 -403 1198 -28 48
-51 92 -51 97 0 6 -3 10 -8 10 -11 0 -69 111 -77 149 -19 90 -107 330 -173
473 l-40 87 47 125 c46 121 65 152 149 245 47 51 184 240 239 330 26 42 50 78
53 81 3 3 14 21 24 40 11 19 42 76 69 125 92 166 189 398 255 605 16 52 48
134 70 182 47 99 101 239 140 364 27 85 27 86 124 175 89 82 273 288 358 399
19 25 41 52 49 60 54 56 268 420 342 583 46 100 98 179 219 337 53 68 185 297
251 435 85 176 162 378 218 570 23 80 87 392 97 475 3 30 26 134 49 230 42
167 46 180 110 285 257 422 425 934 475 1445 6 63 22 151 35 195 39 129 151
582 169 680 35 199 48 346 51 585 2 154 9 284 19 350 41 276 39 644 -5 959
-25 172 -29 135 45 347 104 298 167 640 182 992 5 116 11 168 21 177 7 8 13
24 13 37 0 13 9 30 20 38 11 8 20 26 20 40 0 14 9 32 20 40 11 8 20 22 20 32
0 10 5 18 10 18 6 0 10 16 10 35 0 27 8 44 35 70 32 33 38 35 100 35 37 0 65
4 65 10 0 6 73 10 200 10 127 0 200 4 200 10 0 6 27 10 60 10 33 0 60 4 60 10
0 6 12 10 26 10 16 0 37 12 54 30 15 17 33 30 40 30 7 0 25 14 40 30 15 17 37
30 49 30 23 0 471 440 471 463 0 7 9 19 20 27 11 8 20 22 20 32 0 10 5 18 10
18 6 0 10 9 10 20 0 11 5 20 10 20 6 0 10 9 10 20 0 11 5 20 10 20 6 0 10 12
10 26 0 17 14 39 40 64 38 37 40 41 40 100 0 56 3 65 30 90 17 15 30 35 30 44
0 9 5 16 10 16 6 0 10 14 10 30 0 17 5 30 10 30 6 0 10 40 10 100 0 60 4 100
10 100 6 0 10 17 10 38 0 26 6 42 20 52 13 10 20 26 20 48 0 25 8 42 30 62 30
28 30 28 30 142 0 102 2 115 20 128 16 12 20 26 20 72 0 32 4 58 10 58 6 0 10
9 10 20 0 11 5 20 10 20 6 0 10 27 10 60 0 33 4 60 10 60 6 0 10 9 10 20 0 11
5 20 10 20 6 0 10 8 10 18 0 10 9 24 20 32 16 12 20 26 20 72 0 32 4 58 10 58
6 0 10 9 10 20 0 11 5 20 10 20 6 0 10 18 10 40 0 22 5 40 10 40 6 0 10 27 10
60 0 33 4 60 10 60 6 0 10 27 10 60 0 33 4 60 10 60 6 0 10 9 10 20 0 11 5 20
10 20 6 0 10 8 10 18 0 10 9 24 20 32 11 8 20 22 20 32 0 10 5 18 10 18 6 0
10 9 10 20 0 11 5 20 10 20 6 0 10 33 10 78 0 66 3 80 20 92 14 10 20 26 20
52 0 21 5 38 10 38 6 0 10 14 10 30 0 17 5 30 10 30 6 0 10 66 10 178 0 166 1
179 20 192 18 13 20 26 20 108 l0 94 40 38 40 38 0 136 c0 84 4 136 10 136 6
0 10 37 10 90 0 53 4 90 10 90 6 0 10 14 10 30 0 17 5 30 10 30 6 0 10 13 10
28 0 16 8 34 20 42 14 10 20 26 20 52 0 21 5 38 10 38 6 0 10 23 10 50 0 28 5
50 10 50 6 0 10 17 10 38 0 26 6 42 20 52 15 11 20 26 20 62 0 26 5 48 10 48
6 0 10 9 10 20 0 11 5 20 10 20 6 0 10 14 10 30 0 17 5 30 10 30 6 0 10 23 10
50 0 28 5 50 10 50 6 0 10 18 10 40 0 22 5 40 10 40 6 0 10 27 10 60 0 33 4
60 10 60 6 0 10 18 10 40 0 22 5 40 10 40 6 0 10 9 10 20 0 11 5 20 10 20 6 0
10 30 10 70 0 40 4 70 10 70 6 0 10 30 10 70 0 40 4 70 10 70 6 0 10 27 10 60
0 33 4 60 10 60 6 0 10 14 10 30 0 17 5 30 10 30 6 0 10 14 10 30 0 17 5 30
10 30 6 0 10 9 10 20 0 11 5 20 10 20 6 0 10 18 10 40 0 22 5 40 10 40 6 0 10
14 10 30 0 17 5 30 10 30 6 0 10 9 10 20 0 11 5 20 10 20 6 0 10 18 10 40 0
22 5 40 10 40 6 0 10 29 10 68 0 56 3 70 20 82 16 12 20 26 20 72 0 32 4 58
10 58 6 0 10 14 10 30 0 17 5 30 10 30 6 0 10 23 10 50 0 28 5 50 10 50 6 0
10 14 10 30 0 17 5 30 10 30 6 0 10 13 10 28 0 16 8 34 20 42 14 10 20 26 20
52 0 21 5 38 10 38 6 0 10 46 10 118 0 106 2 119 20 132 14 10 20 26 20 52 0
21 5 38 10 38 6 0 10 17 10 38 0 26 6 42 20 52 11 8 20 21 20 30 0 9 9 22 20
30 11 8 20 20 20 28 0 7 36 48 80 92 l80 79 0 56 c0 30 5 55 10 55 6 0 10 139
10 398 0 386 -1 398 -20 412 -16 12 -20 26 -20 78 0 58 3 67 30 92 l30 28 0
216 c0 137 4 216 10 216 6 0 10 8 10 18 0 10 9 24 20 32 11 8 20 20 20 28 0
16 45 62 61 62 6 0 24 14 39 30 26 28 33 30 99 30 l72 0 69 70 69 70 182 0
181 0 28 30 c15 17 35 30 44 30 9 0 16 5 16 10 0 6 7 10 15 10 8 0 85 70 170
155 l155 155 0 60 0 61 100 99 c63 63 100 107 100 120 0 12 21 42 50 70 28 27
50 54 50 60 0 6 32 42 70 80 61 60 70 74 70 105 0 19 5 35 10 35 6 0 10 9 10
20 0 11 5 20 10 20 6 0 10 16 10 36 0 27 7 43 30 64 24 22 30 36 30 69 0 36 6
48 45 86 29 30 53 45 70 45 14 0 25 5 25 10 0 6 7 10 16 10 22 0 44 25 44 50
0 13 33 54 90 110 50 49 90 94 90 100 0 16 108 120 125 120 8 0 15 5 15 10 0
6 18 10 40 10 22 0 40 5 40 10 0 6 47 10 120 10 139 0 127 -14 105 130 -8 52
-17 149 -20 215 -4 66 -8 143 -10 170 -6 94 15 414 35 552 49 318 133 611 252
876 l40 88 -21 107 c-32 164 -50 297 -56 422 -4 63 -8 140 -10 170 -6 101 14
417 35 557 53 347 133 615 282 942 l71 154 -22 146 c-11 80 -24 193 -27 251
-3 58 -7 132 -8 165 -6 107 13 421 34 562 22 146 67 356 99 461 11 34 15 62
10 62 -5 0 -9 4 -9 9 0 6 -28 54 -61 107 -148 235 -283 532 -368 809 -70 229
-126 536 -137 749 -3 67 -7 144 -9 171 -6 102 16 423 40 579 14 88 40 220 58
292 25 102 29 134 20 143 -17 16 -140 14 -147 -1 -5 -10 -7 -10 -12 0 -3 6
-17 12 -30 12 -17 0 -45 21 -89 65 -55 55 -65 70 -65 100 0 19 -4 35 -10 35
-5 0 -10 11 -10 26 0 18 -18 42 -60 84 -33 32 -60 66 -60 74 0 9 -4 16 -10 16
-6 0 -10 62 -10 166 l0 165 -60 59 c-39 39 -60 67 -60 82 0 13 -9 30 -20 38
-11 8 -20 25 -20 37 0 27 -80 113 -105 113 -8 0 -15 5 -15 10 0 6 -36 10 -88
10 -76 0 -89 3 -102 20 -13 17 -26 20 -102 20 -52 0 -88 -4 -88 -10 0 -5 -9
-10 -20 -10 -11 0 -20 5 -20 10 0 6 -25 10 -55 10 -50 0 -59 3 -90 35 -19 19
-35 41 -35 50 0 10 -10 15 -30 15 -16 0 -30 5 -30 10 0 6 -13 10 -28 10 -16 0
-34 8 -42 20 -10 14 -26 20 -52 20 l-38 0 0 163 c0 344 -79 775 -200 1097 -18
47 -39 102 -46 123 -54 147 -196 413 -328 615 -91 140 -281 368 -426 512 -124
124 -357 318 -478 399 l-63 42 31 29 c22 20 30 37 30 62 0 22 7 38 20 48 16
11 20 26 20 70 0 44 -4 59 -20 70 -18 13 -20 26 -20 112 0 59 -4 98 -10 98 -5
0 -10 16 -10 36 0 27 -7 43 -30 64 -17 15 -30 35 -30 44 0 9 -4 16 -10 16 -5
0 -10 8 -10 18 0 10 -9 24 -20 32 -11 8 -20 21 -20 30 0 9 -9 22 -20 30 -11 8
-20 21 -20 28 0 8 -13 27 -30 42 -16 15 -30 35 -30 44 0 9 -4 16 -10 16 -6 0
-10 62 -10 165 l0 166 -35 34 c-31 32 -40 35 -90 35 -30 0 -55 5 -55 10 0 6
-33 10 -80 10 -47 0 -80 -4 -80 -10 0 -6 -27 -10 -60 -10 -33 0 -60 4 -60 10
0 6 -11 10 -25 10 -14 0 -27 6 -29 13 -2 6 -16 64 -31 127 -95 405 -289 835
-522 1156 -224 310 -472 565 -738 759 -44 33 -81 63 -83 67 -2 4 -10 8 -17 8
-7 0 -15 4 -17 9 -5 15 -265 170 -387 231 -103 51 -187 88 -341 150 -78 32
-229 78 -375 115 -82 20 -192 58 -265 89 -236 102 -347 140 -590 199 -235 58
-553 96 -802 97 l-86 0 -17 48 c-74 205 -163 403 -257 567 -87 151 -208 339
-256 395 -288 338 -327 379 -502 525 -58 48 -116 97 -130 109 -108 96 -451
301 -662 397 -716 323 -1516 393 -2273 198 -156 -39 -300 -87 -426 -140 -41
-17 -85 -35 -99 -40 -24 -9 -36 1 -175 139 -151 149 -209 202 -221 202 -4 0
-17 11 -29 24 -41 44 -281 212 -384 269 -18 10 -38 23 -45 28 -6 6 -45 28 -86
50 -412 219 -798 341 -1250 394 -123 15 -496 27 -575 19z"/>
</g>
</svg>
