<svg xmlns="http://www.w3.org/2000/svg" width="1366" height="768" viewBox="0 0 1366 768">
  <metadata><?xpacket begin="﻿" id="W5M0MpCehiHzreSzNTczkc9d"?>
<x:xmpmeta xmlns:x="adobe:ns:meta/" x:xmptk="Adobe XMP Core 5.6-c138 79.159824, 2016/09/14-01:09:01        ">
   <rdf:RDF xmlns:rdf="http://www.w3.org/1999/02/22-rdf-syntax-ns#">
      <rdf:Description rdf:about=""/>
   </rdf:RDF>
</x:xmpmeta>
                                                                                                    
                                                                                                    
                                                                                                    
                                                                                                    
                                                                                                    
                                                                                                    
                                                                                                    
                                                                                                    
                                                                                                    
                                                                                                    
                                                                                                    
                                                                                                    
                                                                                                    
                                                                                                    
                                                                                                    
                                                                                                    
                                                                                                    
                                                                                                    
                                                                                                    
                                                                                                    
                           
<?xpacket end="w"?></metadata>
<defs>
    <style>
      .cls-1 {
        fill: #fcef99;
        fill-rule: evenodd;
      }

      .cls-2 {
        fill: #470000;
      }

      .cls-3 {
        fill: #940404;
      }
    </style>
  </defs>
  <g id="Artboard_1" data-name="Artboard 1">
    <path class="cls-1" d="M-19-41l1.731,0.027L1381-19l-1,557-43,202-71-154,3,125-25-77-10,98L1133,573l-30,148-56-81-14,55L952,594,914,714l-66-68-11,45-39-31v49l-29,20-28,34L660,580l-3,132-44-59-2,52L504,636l-42,94L409,596l-9,96-41-42-19,58-67-89-7,113L177,591l-31,83L88,585,43,694,23,597-20,704"/>
    <circle class="cls-2" cx="50.5" cy="57.5" r="16.5"/>
    <circle id="Ellipse_1_copy" data-name="Ellipse 1 copy" class="cls-3" cx="45.5" cy="56.5" r="16.5"/>
  </g>
</svg>
